<svg width="40" height="36" viewBox="0 0 40 36" fill="none" xmlns="http://www.w3.org/2000/svg">
<path d="M14.6987 23.7155C22.6693 23.7155 29.3973 24.9823 29.3973 29.8807C29.3973 34.7754 22.6263 36 14.6987 36L14.1572 35.998C6.42566 35.9405 0 34.6219 0 29.8347C0 24.9401 6.77105 23.7155 14.6987 23.7155ZM27.1394 20.7664C30.1707 20.7089 33.431 21.1171 34.6345 21.4046C37.1864 21.8933 38.8635 22.8879 39.5582 24.3387C40.1473 25.5269 40.1473 26.9068 39.5582 28.095C38.4956 30.3411 35.067 31.0636 33.7343 31.2495C33.4584 31.2878 33.2373 31.0578 33.2666 30.7857C33.9476 24.561 28.5328 21.6097 27.1316 20.9312C27.0729 20.8987 27.0592 20.8527 27.065 20.822C27.069 20.8028 27.0944 20.7722 27.1394 20.7664ZM14.6987 0C20.0979 0 24.4247 4.2373 24.4247 9.52482C24.4247 14.8123 20.0979 19.0496 14.6987 19.0496C9.30139 19.0496 4.97261 14.8123 4.97261 9.52482C4.97261 4.2373 9.30139 0 14.6987 0ZM27.6678 1.59086C32.8831 1.59086 36.977 6.39351 35.5817 11.7424C34.6404 15.3472 31.2333 17.7409 27.4369 17.6432C27.0553 17.6355 26.6815 17.5991 26.3175 17.5397C26.0553 17.4937 25.9222 17.2043 26.0729 16.9896C27.521 14.9026 28.3468 12.3901 28.3468 9.6975C28.3468 6.88413 27.4466 4.26432 25.8791 2.11213C25.8282 2.04506 25.7911 1.94349 25.8419 1.86491C25.8811 1.80358 25.9594 1.76909 26.0318 1.75376C26.5601 1.64835 27.1022 1.59086 27.6678 1.59086Z" fill="#4EA5D9"/>
</svg>