<svg width="41" height="41" viewBox="0 0 41 41" fill="none" xmlns="http://www.w3.org/2000/svg">
<path d="M20.5233 0.522827L21.0828 0.530516C31.8645 0.827153 40.5233 9.66995 40.5233 20.5228C40.5233 31.5428 31.5633 40.5228 20.5233 40.5228C9.50331 40.5228 0.52331 31.5428 0.52331 20.5228C0.52331 9.48283 9.50331 0.522827 20.5233 0.522827ZM24.4833 12.5228C23.8833 11.9228 22.9433 11.9228 22.3633 12.5228L15.3833 19.4628C15.1033 19.7428 14.9433 20.1228 14.9433 20.5228C14.9433 20.9228 15.1033 21.3028 15.3833 21.5828L22.3633 28.5228C22.6433 28.8228 23.0233 28.9628 23.4033 28.9628C23.8033 28.9628 24.1833 28.8228 24.4833 28.5228C25.0633 27.9228 25.0633 26.9828 24.4633 26.4028L18.5633 20.5228L24.4633 14.6428C25.0633 14.0628 25.0633 13.1028 24.4833 12.5228Z" fill="#4EA5D9"/>
</svg>
