<svg width="41" height="41" viewBox="0 0 41 41" fill="none" xmlns="http://www.w3.org/2000/svg">
<path d="M20.5235 0.522827C31.5435 0.522827 40.5235 9.50283 40.5235 20.5228C40.5235 31.5628 31.5435 40.5228 20.5235 40.5228L19.964 40.5151C9.18235 40.2185 0.52351 31.3757 0.52351 20.5228C0.52351 9.50283 9.48351 0.522827 20.5235 0.522827ZM17.6435 12.0828C17.2435 12.0828 16.8635 12.2228 16.5635 12.5228C15.9835 13.1228 15.9835 14.0628 16.5835 14.6428L22.4835 20.5228L16.5835 26.4028C15.9835 26.9828 15.9835 27.9428 16.5635 28.5228C17.1635 29.1228 18.1035 29.1228 18.6835 28.5228L25.6635 21.5828C25.9435 21.3028 26.1035 20.9228 26.1035 20.5228C26.1035 20.1228 25.9435 19.7428 25.6635 19.4628L18.6835 12.5228C18.4035 12.2228 18.0235 12.0828 17.6435 12.0828Z" fill="#4EA5D9"/>
</svg>
