<svg width="38" height="40" viewBox="0 0 38 40" fill="none" xmlns="http://www.w3.org/2000/svg">
<path d="M9.58104 21.5398H1.56301C0.710459 21.5398 0 20.8598 0 19.9998C0 19.1598 0.710459 18.4598 1.56301 18.4598H9.58104L9.58165 8.9C9.58165 4 13.7122 0 18.7722 0H28.8508C33.8901 0 38 4 38 8.88V31.12C38 36.02 33.8901 40 28.8095 40H18.7515C13.7122 40 9.58165 36.02 9.58165 31.14V21.54H22.3864L19.082 24.74C18.4624 25.34 18.4624 26.32 19.082 26.92C19.3918 27.22 19.8048 27.36 20.2179 27.36C20.6103 27.36 21.0233 27.22 21.3331 26.92L27.3638 21.1C27.6736 20.82 27.8388 20.42 27.8388 20C27.8388 19.6 27.6736 19.2 27.3638 18.92L21.3331 13.1C20.7135 12.5 19.7016 12.5 19.082 13.1C18.4624 13.7 18.4624 14.68 19.082 15.28L22.3864 18.46H9.58165L9.58104 21.5398Z" fill="#4EA5D9"/>
</svg>
